<?xml version="1.0" encoding="UTF-8"?>
<svg id="_レイヤー_2" data-name="レイヤー 2" xmlns="http://www.w3.org/2000/svg" viewBox="0 0 88.05 71.3">
  <defs>
    <style>
      .cls-1 {
        fill: none;
        stroke: #000;
        stroke-width: .5px;
      }
    </style>
  </defs>
  <g id="_編集モード" data-name="編集モード">
    <g id="Regular-S">
      <path class="cls-1" d="M12.7,71.05h64.06c6.93,0,11.04-4.1,11.04-12.3V19.49c0-8.2-4.15-12.26-12.45-12.26h-36.57c-2.39,0-3.96-.68-5.81-2.2l-2.44-1.95C27.98.98,25.88.25,22.17.25h-10.94C4.35.25.25,4.25.25,12.41v46.34c0,8.2,4.15,12.3,12.45,12.3ZM12.8,63.97c-3.52,0-5.52-1.86-5.52-5.57V12.75c0-3.61,1.95-5.47,5.47-5.47h7.57c2.39,0,3.96.68,5.81,2.2l2.44,1.95c2.49,2.05,4.64,2.83,8.35,2.83h38.33c3.52,0,5.52,1.9,5.52,5.62v38.57c0,3.66-2,5.52-5.52,5.52H12.8ZM12.51,26.67h63.04v-2.78c0-2.34-1.12-3.37-3.42-3.37H15.92c-2.25,0-3.42,1.03-3.42,3.37v2.78Z"/>
    </g>
  </g>
</svg>